<svg width="74" height="55" viewBox="0 0 74 55" fill="none" xmlns="http://www.w3.org/2000/svg">
<path d="M58.4559 0.000101703C62.8559 0.000102088 66.4559 1.46677 69.2559 4.4001C71.9225 7.33343 73.2559 11.2668 73.2559 16.2001C73.2559 24.8668 70.3892 32.4001 64.6559 38.8001C58.7892 45.2001 51.7892 50.4668 43.6559 54.6001L41.6559 51.2001C44.9892 49.0668 48.1225 46.3334 51.0559 43.0001C53.8559 39.6668 56.0559 36.0668 57.6559 32.2001L52.0559 28.0001C49.7892 26.5334 47.9225 24.5334 46.4559 22.0001C44.9892 19.6001 44.2559 17.2668 44.2559 15.0001C44.2559 10.7334 45.5892 7.13343 48.2559 4.2001C50.7892 1.4001 54.1892 0.00010133 58.4559 0.000101703ZM17.2559 9.81012e-05C21.6559 9.84858e-05 25.2559 1.46676 28.0559 4.40009C30.7225 7.33343 32.0559 11.2668 32.0559 16.2001C32.0559 24.8668 29.1892 32.4001 23.4559 38.8001C17.5892 45.2001 10.5892 50.4668 2.45586 54.6001L0.455857 51.2001C3.78919 49.0668 6.92252 46.3334 9.85586 43.0001C12.6559 39.6668 14.8559 36.0668 16.4559 32.2001L10.8559 28.0001C8.58919 26.5334 6.72252 24.5334 5.25585 22.0001C3.78919 19.6001 3.05587 17.2668 3.05587 15.0001C3.05587 10.7334 4.38919 7.13343 7.05586 4.20009C9.5892 1.4001 12.9892 9.77281e-05 17.2559 9.81012e-05Z" fill="#CDA274"/>
</svg>
