<svg width="17" height="17" viewBox="0 0 17 17" fill="none" xmlns="http://www.w3.org/2000/svg">
<path d="M4.14062 16.1274V5.61572H0.871094V16.1274H4.14062ZM2.48828 4.20947C3.54297 4.20947 4.38672 3.33057 4.38672 2.27588C4.38672 1.25635 3.54297 0.412598 2.48828 0.412598C1.46875 0.412598 0.625 1.25635 0.625 2.27588C0.625 3.33057 1.46875 4.20947 2.48828 4.20947ZM16.3398 16.1274H16.375V10.3618C16.375 7.54932 15.7422 5.36963 12.4375 5.36963C10.8555 5.36963 9.80078 6.24854 9.34375 7.05713H9.30859V5.61572H6.17969V16.1274H9.44922V10.9243C9.44922 9.55322 9.69531 8.25244 11.3828 8.25244C13.0703 8.25244 13.1055 9.79932 13.1055 11.0298V16.1274H16.3398Z" fill="#292F36"/>
</svg>
