<svg width="17" height="18" viewBox="0 0 17 18" fill="none" xmlns="http://www.w3.org/2000/svg">
<path d="M8.70605 4.98389C6.33105 4.98389 4.43848 6.91357 4.43848 9.25146C4.43848 11.6265 6.33105 13.519 8.70605 13.519C11.0439 13.519 12.9736 11.6265 12.9736 9.25146C12.9736 6.91357 11.0439 4.98389 8.70605 4.98389ZM8.70605 12.0347C7.18457 12.0347 5.92285 10.8101 5.92285 9.25146C5.92285 7.72998 7.14746 6.50537 8.70605 6.50537C10.2275 6.50537 11.4521 7.72998 11.4521 9.25146C11.4521 10.8101 10.2275 12.0347 8.70605 12.0347ZM14.124 4.83545C14.124 4.27881 13.6787 3.8335 13.1221 3.8335C12.5654 3.8335 12.1201 4.27881 12.1201 4.83545C12.1201 5.39209 12.5654 5.8374 13.1221 5.8374C13.6787 5.8374 14.124 5.39209 14.124 4.83545ZM16.9443 5.8374C16.8701 4.50146 16.5732 3.31396 15.6084 2.34912C14.6436 1.38428 13.4561 1.0874 12.1201 1.01318C10.7471 0.938965 6.62793 0.938965 5.25488 1.01318C3.91895 1.0874 2.76855 1.38428 1.7666 2.34912C0.801758 3.31396 0.504883 4.50146 0.430664 5.8374C0.356445 7.21045 0.356445 11.3296 0.430664 12.7026C0.504883 14.0386 0.801758 15.189 1.7666 16.1909C2.76855 17.1558 3.91895 17.4526 5.25488 17.5269C6.62793 17.6011 10.7471 17.6011 12.1201 17.5269C13.4561 17.4526 14.6436 17.1558 15.6084 16.1909C16.5732 15.189 16.8701 14.0386 16.9443 12.7026C17.0186 11.3296 17.0186 7.21045 16.9443 5.8374ZM15.1631 14.1499C14.9033 14.8921 14.3096 15.4487 13.6045 15.7456C12.4912 16.1909 9.89355 16.0796 8.70605 16.0796C7.48145 16.0796 4.88379 16.1909 3.80762 15.7456C3.06543 15.4487 2.50879 14.8921 2.21191 14.1499C1.7666 13.0737 1.87793 10.4761 1.87793 9.25146C1.87793 8.06396 1.7666 5.46631 2.21191 4.35303C2.50879 3.64795 3.06543 3.09131 3.80762 2.79443C4.88379 2.34912 7.48145 2.46045 8.70605 2.46045C9.89355 2.46045 12.4912 2.34912 13.6045 2.79443C14.3096 3.0542 14.8662 3.64795 15.1631 4.35303C15.6084 5.46631 15.4971 8.06396 15.4971 9.25146C15.4971 10.4761 15.6084 13.0737 15.1631 14.1499Z" fill="#292F36"/>
</svg>
