<svg width="16" height="13" viewBox="0 0 16 13" fill="none" xmlns="http://www.w3.org/2000/svg">
<path d="M1.996 6.4C1.996 6.99733 2.05467 7.54667 2.172 8.048C2.28933 8.54933 2.45467 8.98133 2.668 9.344C2.892 9.70667 3.15867 9.98933 3.468 10.192C3.77733 10.384 4.124 10.48 4.508 10.48C4.892 10.48 5.23333 10.384 5.532 10.192C5.84133 9.98933 6.10267 9.70667 6.316 9.344C6.54 8.98133 6.71067 8.54933 6.828 8.048C6.94533 7.54667 7.004 6.99733 7.004 6.4C7.004 5.80267 6.94533 5.25333 6.828 4.752C6.71067 4.25067 6.54 3.81867 6.316 3.456C6.10267 3.09333 5.84133 2.816 5.532 2.624C5.23333 2.42133 4.892 2.32 4.508 2.32C4.124 2.32 3.77733 2.42133 3.468 2.624C3.15867 2.816 2.892 3.09333 2.668 3.456C2.45467 3.81867 2.28933 4.25067 2.172 4.752C2.05467 5.25333 1.996 5.80267 1.996 6.4ZM0.14 6.4C0.14 5.23733 0.321333 4.224 0.684 3.36C1.05733 2.496 1.56933 1.824 2.22 1.344C2.88133 0.864 3.644 0.624 4.508 0.624C5.38267 0.624 6.14533 0.864 6.796 1.344C7.44667 1.824 7.95333 2.496 8.316 3.36C8.67867 4.224 8.86 5.23733 8.86 6.4C8.86 7.56267 8.67867 8.576 8.316 9.44C7.95333 10.304 7.44667 10.976 6.796 11.456C6.14533 11.936 5.38267 12.176 4.508 12.176C3.644 12.176 2.88133 11.936 2.22 11.456C1.56933 10.976 1.05733 10.304 0.684 9.44C0.321333 8.576 0.14 7.56267 0.14 6.4ZM10.7 3.424V1.632L15.164 0.624V12H13.308V2.704L10.7 3.424Z" fill="#292F36"/>
</svg>
