<svg width="19" height="16" viewBox="0 0 19 16" fill="none" xmlns="http://www.w3.org/2000/svg">
<path d="M16.7969 4.59619C17.5 4.06885 18.1328 3.43604 18.625 2.69775C17.9922 2.979 17.2539 3.18994 16.5156 3.26025C17.2891 2.80322 17.8516 2.1001 18.1328 1.22119C17.4297 1.64307 16.6211 1.95947 15.8125 2.13525C15.1094 1.39697 14.1602 0.975098 13.1055 0.975098C11.0664 0.975098 9.41406 2.62744 9.41406 4.6665C9.41406 4.94775 9.44922 5.229 9.51953 5.51025C6.46094 5.33447 3.71875 3.85791 1.89062 1.64307C1.57422 2.17041 1.39844 2.80322 1.39844 3.50635C1.39844 4.77197 2.03125 5.89697 3.05078 6.56494C2.45312 6.52979 1.85547 6.38916 1.36328 6.10791V6.14307C1.36328 7.93604 2.62891 9.4126 4.31641 9.76416C4.03516 9.83447 3.68359 9.90479 3.36719 9.90479C3.12109 9.90479 2.91016 9.86963 2.66406 9.83447C3.12109 11.311 4.49219 12.3657 6.10938 12.4009C4.84375 13.3853 3.26172 13.9829 1.53906 13.9829C1.22266 13.9829 0.941406 13.9478 0.660156 13.9126C2.27734 14.9673 4.21094 15.5649 6.32031 15.5649C13.1055 15.5649 16.7969 9.9751 16.7969 5.08838C16.7969 4.9126 16.7969 4.77197 16.7969 4.59619Z" fill="#292F36"/>
</svg>
